<svg xmlns="http://www.w3.org/2000/svg" viewBox="0 0 140 121.39"><defs><style>.cls-1{fill:#fff;}</style></defs><title>Asset 1</title><g id="Layer_2" data-name="Layer 2"><g id="Layer_2-2" data-name="Layer 2"><path class="cls-1" d="M97.07,13.95H94v5.53H90.89v2.68H94V33.91A7,7,0,0,0,94.28,36a2.51,2.51,0,0,0,.77,1.21,3,3,0,0,0,1.36.59,10.89,10.89,0,0,0,2,.16h2.32V35.26H99.35a10.11,10.11,0,0,1-1.16-.05,1.49,1.49,0,0,1-.7-.23.88.88,0,0,1-.34-.5,3.3,3.3,0,0,1-.09-.86V22.16h3.68V19.48H97.07Z"/><path class="cls-1" d="M107.14,27.51a7.47,7.47,0,0,1,.34-2.3,5.24,5.24,0,0,1,1-1.84,4.52,4.52,0,0,1,1.7-1.21,6.18,6.18,0,0,1,2.41-.43,3.72,3.72,0,0,1,2.75,1,3.67,3.67,0,0,1,1,2.71v12.5h3V25.8a11.43,11.43,0,0,0-.3-2.73A5.17,5.17,0,0,0,118,20.94a5,5,0,0,0-2-1.39,8,8,0,0,0-3-.5,8.48,8.48,0,0,0-1.7.18,7.16,7.16,0,0,0-1.66.55,5.86,5.86,0,0,0-1.45,1,4.18,4.18,0,0,0-1,1.43h-.07V12.45h-3V37.94h3Z"/><path class="cls-1" d="M139.68,26.09a10.24,10.24,0,0,0-1.36-3.43,8.09,8.09,0,0,0-2.61-2.59,7.58,7.58,0,0,0-4.09-1,8.39,8.39,0,0,0-3.48.71,8.19,8.19,0,0,0-2.75,2,9.18,9.18,0,0,0-1.8,3.05,11.14,11.14,0,0,0-.64,3.84,14.77,14.77,0,0,0,.62,3.89,8.49,8.49,0,0,0,1.66,3.07,7.75,7.75,0,0,0,2.73,2,9.29,9.29,0,0,0,3.84.73A8.25,8.25,0,0,0,137,36.76a7.51,7.51,0,0,0,2.68-4.68h-3a4.29,4.29,0,0,1-1.64,2.71,5.27,5.27,0,0,1-3.14.89,6.28,6.28,0,0,1-2.61-.5,5.1,5.1,0,0,1-1.82-1.34,5.21,5.21,0,0,1-1-1.93,7.32,7.32,0,0,1-.29-2.3H140A14.7,14.7,0,0,0,139.68,26.09Zm-13.52.86a6.32,6.32,0,0,1,.46-2,5.39,5.39,0,0,1,1.07-1.66,4.91,4.91,0,0,1,1.62-1.12,5.29,5.29,0,0,1,2.12-.41,5.15,5.15,0,0,1,4.84,3.18,6.23,6.23,0,0,1,.48,2Z"/><path class="cls-1" d="M41.22,59.06V56.38H37.55V50.84h-3v5.53H31.37v2.68h3.14V70.8a7,7,0,0,0,.25,2.07,2.51,2.51,0,0,0,.77,1.21,3,3,0,0,0,1.36.59,10.92,10.92,0,0,0,2,.16h2.32V72.16H39.83a10.11,10.11,0,0,1-1.16-.05,1.49,1.49,0,0,1-.7-.23.88.88,0,0,1-.34-.5,3.3,3.3,0,0,1-.09-.86V59.06Z"/><path class="cls-1" d="M59.86,74.84V62.7a11.43,11.43,0,0,0-.3-2.73,5.17,5.17,0,0,0-1.05-2.12,5,5,0,0,0-2-1.39,8,8,0,0,0-3-.5,8.48,8.48,0,0,0-1.7.18,7.16,7.16,0,0,0-1.66.55,5.86,5.86,0,0,0-1.45,1,4.18,4.18,0,0,0-1,1.43h-.07V49.34h-3V74.84h3V64.41a7.47,7.47,0,0,1,.34-2.3,5.24,5.24,0,0,1,1-1.84,4.52,4.52,0,0,1,1.7-1.21,6.18,6.18,0,0,1,2.41-.43,3.72,3.72,0,0,1,2.75,1,3.67,3.67,0,0,1,1,2.71v12.5Z"/><path class="cls-1" d="M78.81,59.56A8.09,8.09,0,0,0,76.2,57a7.58,7.58,0,0,0-4.09-1,8.39,8.39,0,0,0-3.48.71,8.19,8.19,0,0,0-2.75,2,9.18,9.18,0,0,0-1.8,3.05,11.14,11.14,0,0,0-.64,3.84,14.77,14.77,0,0,0,.62,3.89,8.49,8.49,0,0,0,1.66,3.07,7.75,7.75,0,0,0,2.73,2,9.29,9.29,0,0,0,3.84.73,8.25,8.25,0,0,0,5.21-1.61A7.5,7.5,0,0,0,80.18,69h-3a4.29,4.29,0,0,1-1.64,2.71,5.27,5.27,0,0,1-3.14.89,6.28,6.28,0,0,1-2.61-.5A5.1,5.1,0,0,1,68,70.75a5.21,5.21,0,0,1-1-1.93,7.32,7.32,0,0,1-.29-2.3H80.47a14.7,14.7,0,0,0-.3-3.53A10.24,10.24,0,0,0,78.81,59.56ZM66.65,63.84a6.32,6.32,0,0,1,.46-2,5.39,5.39,0,0,1,1.07-1.66A4.91,4.91,0,0,1,69.81,59a5.29,5.29,0,0,1,2.12-.41,5.15,5.15,0,0,1,4.84,3.18,6.23,6.23,0,0,1,.48,2Z"/><path class="cls-1" d="M86.43,60.27h-.07V56.38H83.5V74.84h3V66.63a12.67,12.67,0,0,1,.36-3.14A6,6,0,0,1,88,61.13a4.9,4.9,0,0,1,2.07-1.46,8.59,8.59,0,0,1,3.11-.5V55.95a6.83,6.83,0,0,0-4.07,1A8.22,8.22,0,0,0,86.43,60.27Z"/><rect class="cls-1" x="96.35" y="56.38" width="3.04" height="18.46"/><rect class="cls-1" x="96.35" y="49.34" width="3.04" height="3.71"/><path class="cls-1" d="M118.69,72.09a7.08,7.08,0,0,1-.12-1.57V61a5,5,0,0,0-.61-2.61,4.29,4.29,0,0,0-1.61-1.55,6.5,6.5,0,0,0-2.23-.73,17.31,17.31,0,0,0-2.48-.18,13,13,0,0,0-2.93.32,7.19,7.19,0,0,0-2.46,1.05,5.42,5.42,0,0,0-1.71,1.91,6.55,6.55,0,0,0-.71,2.89h3a3.11,3.11,0,0,1,1.39-2.77,6.42,6.42,0,0,1,3.21-.73,10,10,0,0,1,1.45.11,3.92,3.92,0,0,1,1.32.43,2.45,2.45,0,0,1,.95.93,3.16,3.16,0,0,1,.36,1.61A1.66,1.66,0,0,1,115,63a3.29,3.29,0,0,1-1.34.68,12.62,12.62,0,0,1-2,.36q-1.13.13-2.37.37A21,21,0,0,0,107,65a7.07,7.07,0,0,0-2,.95,4.52,4.52,0,0,0-1.41,1.61,5.43,5.43,0,0,0-.54,2.57,5.34,5.34,0,0,0,.48,2.37,4.43,4.43,0,0,0,1.3,1.61,5.35,5.35,0,0,0,1.95.91,9.64,9.64,0,0,0,2.37.29,9.4,9.4,0,0,0,3.59-.68,7.43,7.43,0,0,0,2.91-2.18,2.94,2.94,0,0,0,.7,2.18,2.57,2.57,0,0,0,1.87.68,5.52,5.52,0,0,0,1.25-.13,5.08,5.08,0,0,0,.93-.3V72.41a2.76,2.76,0,0,1-.93.18Q118.81,72.59,118.69,72.09Zm-3.16-3.68a3.43,3.43,0,0,1-.32,1.37,4.09,4.09,0,0,1-1,1.36,5.39,5.39,0,0,1-1.75,1,7.18,7.18,0,0,1-2.57.41,6.23,6.23,0,0,1-1.36-.14A3.29,3.29,0,0,1,107.4,72a2.52,2.52,0,0,1-.79-.84,2.46,2.46,0,0,1-.3-1.27,3,3,0,0,1,.3-1.43,2.81,2.81,0,0,1,.8-.95,3.9,3.9,0,0,1,1.18-.59,12.47,12.47,0,0,1,1.43-.36q.75-.14,1.55-.23t1.52-.21q.71-.12,1.36-.3a3.71,3.71,0,0,0,1.07-.46Z"/><path class="cls-1" d="M137.2,57.84a5,5,0,0,0-2-1.39,8,8,0,0,0-3-.5,7.28,7.28,0,0,0-3.52.82,6.29,6.29,0,0,0-2.48,2.54h-.07V56.38h-2.86V74.84h3V64.41a7.47,7.47,0,0,1,.34-2.3,5.24,5.24,0,0,1,1-1.84,4.52,4.52,0,0,1,1.7-1.21,6.18,6.18,0,0,1,2.41-.43,3.72,3.72,0,0,1,2.75,1,3.67,3.67,0,0,1,1,2.71v12.5h3V62.7a11.43,11.43,0,0,0-.3-2.73A5.17,5.17,0,0,0,137.2,57.84Z"/><path class="cls-1" d="M40.17,116.3,4.27,66.52h8.95a14.17,14.17,0,0,0,.56,2.93,8.49,8.49,0,0,0,1.66,3.07,7.75,7.75,0,0,0,2.73,2,9.29,9.29,0,0,0,3.84.73,8.25,8.25,0,0,0,5.21-1.61A7.5,7.5,0,0,0,29.91,69h-3a4.29,4.29,0,0,1-1.64,2.71,5.27,5.27,0,0,1-3.14.89,6.28,6.28,0,0,1-2.61-.5,5.1,5.1,0,0,1-1.82-1.34,5.21,5.21,0,0,1-1-1.93,7.32,7.32,0,0,1-.29-2.3H30.19a14.7,14.7,0,0,0-.3-3.53,10.24,10.24,0,0,0-1.36-3.43A8.09,8.09,0,0,0,25.92,57a7.58,7.58,0,0,0-4.09-1,8.39,8.39,0,0,0-3.48.71,8.19,8.19,0,0,0-2.75,2,9.18,9.18,0,0,0-1.8,3.05,10.51,10.51,0,0,0-.52,2.12H5.06v0H4.62L40.17,5.7,62.62,42.4H66.1L40.17,0,0,65.68l40.17,55.71L64.08,88.22H60.42ZM17.91,60.16A4.91,4.91,0,0,1,19.53,59a5.29,5.29,0,0,1,2.12-.41,5.15,5.15,0,0,1,4.84,3.18,6.23,6.23,0,0,1,.48,2H18.73v0H16.37a6.31,6.31,0,0,1,.46-2A5.39,5.39,0,0,1,17.91,60.16Z"/></g></g></svg>